<svg xmlns="http://www.w3.org/2000/svg" viewBox="0 0 109.679 100.002">
    <path d="M106.965,91.792,72.47,32.044c-7.777-13.47-27.518-13.41-35.261,0L2.713,91.792A20.11,20.11,0,1,0,37.546,111.9L54.839,81.949,72.133,111.9a20.11,20.11,0,1,0,34.832-20.11ZM31.441,108.378A13.062,13.062,0,1,1,26.66,90.535,13.061,13.061,0,0,1,31.441,108.378ZM39.084,95.14A20.08,20.08,0,0,0,16.461,82.079L35.937,48.346C36.8,51,36.195,49.656,50.77,74.9Zm57,18.019a13.054,13.054,0,0,1-17.842-4.781L43.742,48.63c-6.582-11.4,6.107-24.371,17.414-17.842,4.231,2.443,3.067,1.071,39.7,64.529a13.077,13.077,0,0,1-4.781,17.843Z" transform="translate(0 -21.964)"></path>
</svg>
